<?xml version="1.0" encoding="UTF-8"?>
<svg version="1.1" xmlns="http://www.w3.org/2000/svg" width="122" height="122">
<path d="M0 0 C1.29855171 -0.01007584 1.29855171 -0.01007584 2.62333679 -0.02035522 C5.4796628 -0.03932216 8.33575364 -0.04325888 11.19213867 -0.04541016 C13.18365067 -0.05183939 15.17516173 -0.05856784 17.16667175 -0.06558228 C21.34030343 -0.07755206 25.51385237 -0.08126344 29.6875 -0.08007812 C35.02388271 -0.07987505 40.35973221 -0.10716719 45.69598866 -0.14162254 C49.80965083 -0.16391003 53.92318511 -0.16791508 58.03690147 -0.16685867 C60.0036064 -0.16921222 61.97031498 -0.17802184 63.93696022 -0.19352341 C66.69402524 -0.21321911 69.44994601 -0.20733122 72.20703125 -0.1953125 C73.01198029 -0.20655151 73.81692932 -0.21779053 74.64627075 -0.22937012 C81.17239276 -0.1574329 86.35062335 1.74747352 91.32104492 6.03662109 C91.99006836 6.87386719 91.99006836 6.87386719 92.67260742 7.72802734 C93.36483398 8.56140625 93.36483398 8.56140625 94.07104492 9.41162109 C97.34694234 14.42979516 97.59468625 19.13064769 97.58813477 24.99291992 C97.59485199 25.85862106 97.60156921 26.7243222 97.60848999 27.61625671 C97.62745693 30.47258272 97.63139364 33.32867356 97.63354492 36.18505859 C97.63997415 38.17657059 97.64670261 40.16808165 97.65371704 42.15959167 C97.66568683 46.33322336 97.66939821 50.50677229 97.66821289 54.68041992 C97.66800981 60.01680263 97.69530196 65.35265213 97.72975731 70.68890858 C97.75204479 74.80257075 97.75604985 78.91610503 97.75499344 83.0298214 C97.75734699 84.99652632 97.76615661 86.9632349 97.78165817 88.92988014 C97.80135387 91.68694517 97.79546599 94.44286593 97.78344727 97.19995117 C97.79468628 98.00490021 97.80592529 98.80984924 97.81750488 99.63919067 C97.74556766 106.16531268 95.84066124 111.34354328 91.55151367 116.31396484 C90.99334961 116.75998047 90.43518555 117.20599609 89.86010742 117.66552734 C89.02672852 118.35775391 89.02672852 118.35775391 88.17651367 119.06396484 C83.1583396 122.33986226 78.45748707 122.58760618 72.59521484 122.58105469 C71.7295137 122.58777191 70.86381256 122.59448914 69.97187805 122.60140991 C67.11555204 122.62037685 64.25946121 122.62431357 61.40307617 122.62646484 C59.41156417 122.63289407 57.42005312 122.63962253 55.42854309 122.64663696 C51.25491141 122.65860675 47.08136248 122.66231813 42.90771484 122.66113281 C37.57133213 122.66092973 32.23548263 122.68822188 26.89922619 122.72267723 C22.78556401 122.74496472 18.67202973 122.74896977 14.55831337 122.74791336 C12.59160844 122.75026691 10.62489986 122.75907653 8.65825462 122.77457809 C5.9011896 122.79427379 3.14526883 122.78838591 0.38818359 122.77636719 C-0.41676544 122.7876062 -1.22171448 122.79884521 -2.05105591 122.8104248 C-8.57717791 122.73848759 -13.75540851 120.83358116 -18.72583008 116.54443359 C-19.1718457 115.98626953 -19.61786133 115.42810547 -20.07739258 114.85302734 C-20.53887695 114.29744141 -21.00036133 113.74185547 -21.47583008 113.16943359 C-24.7517275 108.15125952 -24.99947141 103.450407 -24.99291992 97.58813477 C-24.99963715 96.72243362 -25.00635437 95.85673248 -25.01327515 94.96479797 C-25.03224208 92.10847196 -25.0361788 89.25238113 -25.03833008 86.39599609 C-25.04475931 84.40448409 -25.05148776 82.41297304 -25.0585022 80.42146301 C-25.07047199 76.24783133 -25.07418336 72.0742824 -25.07299805 67.90063477 C-25.07279497 62.56425205 -25.10008711 57.22840256 -25.13454247 51.89214611 C-25.15682995 47.77848393 -25.160835 43.66494965 -25.15977859 39.55123329 C-25.16213215 37.58452837 -25.17094177 35.61781979 -25.18644333 33.65117455 C-25.20613903 30.89410952 -25.20025114 28.13818875 -25.18823242 25.38110352 C-25.19947144 24.57615448 -25.21071045 23.77120544 -25.22229004 22.94186401 C-25.15035282 16.41574201 -23.2454464 11.23751141 -18.95629883 6.26708984 C-18.39813477 5.82107422 -17.8399707 5.37505859 -17.26489258 4.91552734 C-16.70930664 4.45404297 -16.1537207 3.99255859 -15.58129883 3.51708984 C-10.56312476 0.24119243 -5.86227223 -0.00655149 0 0 Z " fill="#076FD9" transform="translate(24.702392578125,-0.29052734375)"/>
<path d="M0 0 C0.79921875 0.00644531 1.5984375 0.01289063 2.421875 0.01953125 C3.246875 0.03628906 4.071875 0.05304687 4.921875 0.0703125 C5.76234375 0.07933594 6.6028125 0.08835937 7.46875 0.09765625 C9.53658104 0.12115433 11.60426495 0.15702342 13.671875 0.1953125 C13.671875 5.1453125 13.671875 10.0953125 13.671875 15.1953125 C11.568125 15.2984375 9.464375 15.4015625 7.296875 15.5078125 C3.78798054 15.60938616 3.78798054 15.60938616 0.671875 16.1953125 C-1.67583143 19.71687214 -1.70482114 21.70303093 -1.953125 25.8828125 C-2.076875 27.9659375 -2.200625 30.0490625 -2.328125 32.1953125 C2.621875 32.1953125 7.571875 32.1953125 12.671875 32.1953125 C12.75257852 37.52174498 12.55856136 41.87519437 11.671875 47.1953125 C7.051875 47.1953125 2.431875 47.1953125 -2.328125 47.1953125 C-2.328125 60.3953125 -2.328125 73.5953125 -2.328125 87.1953125 C-7.608125 87.1953125 -12.888125 87.1953125 -18.328125 87.1953125 C-18.328125 74.3253125 -18.328125 61.4553125 -18.328125 48.1953125 C-22.618125 48.1953125 -26.908125 48.1953125 -31.328125 48.1953125 C-31.328125 42.9153125 -31.328125 37.6353125 -31.328125 32.1953125 C-27.038125 32.1953125 -22.748125 32.1953125 -18.328125 32.1953125 C-18.36292969 31.133125 -18.39773437 30.0709375 -18.43359375 28.9765625 C-18.8340701 11.95531159 -18.8340701 11.95531159 -13.7109375 6.4609375 C-9.53975324 2.70150104 -5.77835747 -0.08254796 0 0 Z " fill="#F9FBFE" transform="translate(63.328125,17.8046875)"/>
</svg>
