<?xml version="1.0" encoding="UTF-8"?>
<svg fill="none" viewBox="0 0 45 59" xmlns="http://www.w3.org/2000/svg">
  <g clip-path="url(#c)">
    <path
      d="m15.024 4.6018v23.009h14.88v-23.009h-14.88zm1.0623-4.6018h12.756c2.1518 0 3.1878 1.5048 3.1878 3.8348v26.077c0 2.3299-1.036 3.8347-3.1878 3.8347h-12.756c-2.152 0-3.1882-1.5048-3.1882-3.8347v-26.077c0-2.33 1.0362-3.8348 3.1882-3.8348z"
      clip-rule="evenodd" fill="url(#b)" fill-rule="evenodd" />
    <path
      d="m5.1958 10.256h34.537c0.7272 2e-4 1.4265 0.2787 1.9552 0.7785 0.5291 0.4997 0.8474 1.1831 0.8903 1.9103l2.338 39.837c0.0454 0.7771-0.068 1.5551-0.3331 2.2865-0.2655 0.7316-0.6771 1.4007-1.2095 1.9673-0.5326 0.5664-1.1751 1.0175-1.8877 1.3263-0.713 0.3087-1.4813 0.4683-2.2576 0.4689h-33.528c-0.77675-4e-4 -1.5453-0.1594-2.2584-0.468-0.71314-0.3087-1.3559-0.7598-1.8887-1.3264-0.53285-0.5664-0.94462-1.2359-1.21-1.9675s-0.37889-1.5098-0.33345-2.2871l2.3378-39.837c0.04293-0.7277 0.36175-1.4115 0.89125-1.9113 0.52948-0.4999 1.2296-0.778 1.9569-0.7775z"
      clip-rule="evenodd" fill="url(#a)" fill-rule="evenodd" />
    <path
      d="m8.2324 26.757c-0.16183-0.4463-0.21131-1.1609-0.14412-1.631 0.06721-0.47 0.249-0.9163 0.52936-1.2991 0.28035-0.3828 0.65056-0.6904 1.0779-0.8955 0.42725-0.2052 0.89845-0.3015 1.3718-0.2805 0.4734 0.0209 0.9342 0.1585 1.3418 0.4007 0.4076 0.242 0.7493 0.5811 0.9949 0.9873 0.2456 0.406 0.3875 0.8666 0.4131 1.3407 0.0256 0.474-0.0659 0.9473-0.2663 1.3774l-2.6106-1.2216-2.7078 1.2216z"
      fill="#fff" />
    <path
      d="m8.2093 34.559h5.7021c0 2.2735 0.9011 4.4538 2.5051 6.0613 1.604 1.6077 3.7795 2.5107 6.0479 2.5107 2.2685 0 4.444-0.903 6.0481-2.5107 1.604-1.6075 2.505-3.7878 2.505-6.0613h5.7019c0 3.789-1.5017 7.4228-4.175 10.102-2.6737 2.6793-6.2993 4.1843-10.08 4.1843s-7.4065-1.505-10.08-4.1843c-2.6733-2.6794-4.1752-6.3132-4.1752-10.102z"
      clip-rule="evenodd" fill="#fff" fill-rule="evenodd" />
    <path
      d="m22.395 3.4686c0.6809 0 1.2329-0.55611 1.2329-1.2421s-0.552-1.2421-1.2329-1.2421-1.2329 0.5561-1.2329 1.2421 0.552 1.2421 1.2329 1.2421z"
      fill="#fff" />
  </g>
  <defs>
    <linearGradient id="b" x1="16.423" x2="39.162" y1="-2.5577" y2="1.8525" gradientUnits="userSpaceOnUse">
      <stop stop-color="#F12525" offset=".010852" />
      <stop stop-color="#DC2929" offset="1" />
    </linearGradient>
    <linearGradient id="a" x1="8.2759" x2="58.639" y1="6.5749" y2="22.51" gradientUnits="userSpaceOnUse">
      <stop stop-color="#F12525" offset=".010852" />
      <stop stop-color="#DC2929" offset="1" />
    </linearGradient>
    <clipPath id="c">
      <rect width="45" height="59" fill="#fff" />
    </clipPath>
  </defs>
</svg>